<?xml version="1.0" standalone="no"?><!DOCTYPE svg PUBLIC "-//W3C//DTD SVG 1.1//EN" "http://www.w3.org/Graphics/SVG/1.1/DTD/svg11.dtd"><svg t="1698646880606" class="icon" viewBox="0 0 1024 1024" version="1.1" xmlns="http://www.w3.org/2000/svg" p-id="1765" xmlns:xlink="http://www.w3.org/1999/xlink" width="200" height="200"><path d="M573.44 389.12V245.76H358.4c-28.16 0-51.2 23.04-51.2 51.2v460.8c0 28.16 23.04 51.2 51.2 51.2h307.2c28.16 0 51.2-23.04 51.2-51.2V389.12h-143.36z m43.52 101.376L502.784 629.76l-21.504-20.48-21.504 20.992v-41.984l133.12-85.504-147.456 71.68-38.4-35.84v-4.608l209.92-48.128v4.608z" fill="#4A68CC" opacity=".2" p-id="1766"></path><path d="M102.4 896a409.6 51.2 0 1 0 819.2 0 409.6 51.2 0 1 0-819.2 0Z" fill="#4A68CC" opacity=".1" p-id="1767"></path><path d="M96.256 525.312c0 8.704 6.656 15.36 15.36 15.36s15.36-6.656 15.36-15.36-6.656-15.36-15.36-15.36c-8.192 0-15.36 7.168-15.36 15.36zM147.456 822.272c0 8.704 6.656 15.36 15.36 15.36s15.36-6.656 15.36-15.36-6.656-15.36-15.36-15.36c-8.192 0-15.36 7.168-15.36 15.36zM926.72 847.872c-15.36 4.096-18.944 7.168-23.04 23.04-4.096-15.36-7.168-18.944-23.04-23.04 15.36-4.096 18.944-7.68 23.04-23.04 4.096 15.36 7.168 18.944 23.04 23.04zM199.68 467.456c-31.232 8.192-37.888 14.848-46.08 46.08-8.192-31.232-14.848-37.888-46.08-46.08 31.232-8.192 37.888-14.848 46.08-46.08 8.192 31.232 14.848 37.888 46.08 46.08zM821.76 214.528c-15.36 4.096-18.432 7.168-22.528 22.528-4.096-15.36-7.168-18.432-22.528-22.528 15.36-4.096 18.432-7.168 22.528-22.528 3.584 15.36 7.168 18.432 22.528 22.528zM882.688 135.68c-39.936 10.24-48.128 18.944-58.88 58.88-10.24-39.936-18.944-48.128-58.88-58.88 39.936-10.24 48.128-18.944 58.88-58.88 10.24 39.424 18.944 48.128 58.88 58.88zM783.36 337.408c0-1.024 0-2.048-0.512-2.56v-0.512c0-0.512-0.512-1.536-0.512-2.048 0-0.512 0-0.512-0.512-1.024s-0.512-1.024-1.024-1.536l-0.512-0.512c-0.512-0.512-1.024-1.536-1.536-2.048l-143.36-143.36c-0.512-0.512-1.024-1.024-2.048-1.536l-0.512-0.512c-0.512-0.512-1.024-0.512-1.536-1.024-0.512 0-0.512 0-1.024-0.512s-1.536-0.512-2.048-0.512h-0.512c-1.024 0-2.048-0.512-2.56-0.512H358.4c-65.024 0-117.76 52.736-117.76 117.76v460.8c0 65.024 52.736 117.76 117.76 117.76h307.2c65.024 0 117.76-52.736 117.76-117.76V337.408c0 0.512 0 0.512 0 0z m-143.36-105.984L731.136 322.56H640V231.424z m25.6 613.376H358.4c-48.128 0-87.04-38.912-87.04-87.04V296.96c0-48.128 38.912-87.04 87.04-87.04h250.88v128c0 8.704 6.656 15.36 15.36 15.36h128v404.48c0 48.128-38.912 87.04-87.04 87.04z" fill="#4A68CC" opacity=".5" p-id="1768"></path></svg>